HIERARCHY
ROOT Hips
{
  OFFSET -102.467 93.6631 130.069
  CHANNELS 6 Xposition Yposition Zposition Zrotation Xrotation Yrotation
  JOINT LeftUpLeg
  {
    OFFSET 8.64259 1.95398 -2.38835
    CHANNELS 3 Zrotation Xrotation Yrotation
    JOINT LeftLeg
    {
      OFFSET 43.7702 0 0
      CHANNELS 3 Zrotation Xrotation Yrotation
      JOINT LeftFoot
      {
        OFFSET 40.6238 0 0
        CHANNELS 3 Zrotation Xrotation Yrotation
        JOINT LeftToeBase
        {
          OFFSET 12.7242 0 0
          CHANNELS 3 Zrotation Xrotation Yrotation
          End Site
          {
            OFFSET 0 0 0
          }
        }
      }
    }
  }
  JOINT RightUpLeg
  {
    OFFSET -8.2249 1.95398 -2.59336
    CHANNELS 3 Zrotation Xrotation Yrotation
    JOINT RightLeg
    {
      OFFSET 43.5653 0 0
      CHANNELS 3 Zrotation Xrotation Yrotation
      JOINT RightFoot
      {
        OFFSET 40.6238 0 0
        CHANNELS 3 Zrotation Xrotation Yrotation
        JOINT RightToeBase
        {
          OFFSET 12.7242 0 0
          CHANNELS 3 Zrotation Xrotation Yrotation
          End Site
          {
            OFFSET 0 0 0
          }
        }
      }
    }
  }
  JOINT Spine
  {
    OFFSET 0.165834 0.87714 6.61349
    CHANNELS 3 Zrotation Xrotation Yrotation
    JOINT Spine1
    {
      OFFSET 7.38963 1.71661e-005 0
      CHANNELS 3 Zrotation Xrotation Yrotation
      JOINT Spine2
      {
        OFFSET 11.9445 1.14441e-005 0
        CHANNELS 3 Zrotation Xrotation Yrotation
        JOINT Spine3
        {
          OFFSET 14.7254 4.19617e-005 0
          CHANNELS 3 Zrotation Xrotation Yrotation
          JOINT Spine4
          {
            OFFSET 10.9679 0 0
            CHANNELS 3 Zrotation Xrotation Yrotation
            JOINT RightShoulder
            {
              OFFSET 2.46616 -1.6653 3.69651
              CHANNELS 3 Zrotation Xrotation Yrotation
              JOINT RightArm
              {
                OFFSET 13.0012 0 0
                CHANNELS 3 Zrotation Xrotation Yrotation
                JOINT RightForeArm
                {
                  OFFSET 28.7848 1.52588e-005 0
                  CHANNELS 3 Zrotation Xrotation Yrotation
                  JOINT RightHand
                  {
                    OFFSET 26.5688 1.52588e-005 0
                    CHANNELS 3 Zrotation Xrotation Yrotation
                    End Site
                    {
                      OFFSET 0 0 0
                    }
                  }
                }
              }
            }
            JOINT LeftShoulder
            {
              OFFSET 2.38034 -1.29275 -3.7523
              CHANNELS 3 Zrotation Xrotation Yrotation
              JOINT LeftArm
              {
                OFFSET 16.3182 6.10351e-005 0
                CHANNELS 3 Zrotation Xrotation Yrotation
                JOINT LeftForeArm
                {
                  OFFSET 27.0901 0 0
                  CHANNELS 3 Zrotation Xrotation Yrotation
                  JOINT LeftHand
                  {
                    OFFSET 24.5451 1.52588e-005 0
                    CHANNELS 3 Zrotation Xrotation Yrotation
                    End Site
                    {
                      OFFSET 0 0 0
                    }
                  }
                }
              }
            }
            JOINT Neck
            {
              OFFSET 5.0226 -0.0266342 0
              CHANNELS 3 Zrotation Xrotation Yrotation
              JOINT Head
              {
                OFFSET 6.69363 2.86102e-005 0
                CHANNELS 3 Zrotation Xrotation Yrotation
                End Site
                {
                  OFFSET 0 0 0
                }
              }
            }
          }
        }
      }
    }
  }
}
MOTION
Frames:	15
Frame Time:	0.0416667
246.032 81.0372 -267.542 -146.293 54.4695 -40.8955 134.226 26.2041 70.8559 -104.444 -11.653 3.82754 44.7499 -8.41472 -11.2391 86.4334 -23.8843 -24.7105 158.882 30.3739 42.0826 -86.35 -21.1423 15.3246 81.1814 -11.8737 -2.54127 8.52131 4.6633 1.70292 -6.81261 8.45922 -87.6572 10.2913 -12.5051 5.72602 -1.33385 -12.2414 6.27644 -24.3465 -13.6382 1.6408 -4.33385 -13.6383 1.6408 54.2398 -50.1058 -151.611 129.868 -73.2845 94.8433 -174.475 58.02 -179.991 -1.65157 0.014808 -9.78709 -40.3349 -55.0474 148.865 -107.19 -11.7278 -69.7204 -98.174 69.7345 -131.189 19.23 -14.4732 -71.3388 90.5001 20.0723 -30.9021 -127.25 35.4565 15.0853 
246.433 81.0794 -267.933 -146.45 54.2375 -40.8404 134.155 26.2821 70.6392 -104.403 -13.7663 3.93099 43.7168 -8.905 -12.3616 84.8958 -24.9054 -27.2938 158.677 30.0813 42.1817 -87.3515 -20.5429 15.1415 84.3308 -14.5219 -3.07602 4.43925 5.42009 3.62374 -6.82538 8.45618 -87.6236 10.3008 -12.515 5.79505 -1.32458 -12.2482 6.34578 -24.3371 -13.6683 1.70368 -4.32444 -13.6683 1.70368 54.1021 -50.1739 -151.739 115.521 -73.7298 80.5177 -172.922 62.1327 -179.99 -0.853918 -0.0171014 -10.6518 -40.3627 -55.0759 148.815 -103.441 -10.1846 -68.7874 -77.8789 66.7861 -149.629 19.526 -14.8046 -71.8182 90.2039 20.0523 -31.2808 -128.005 35.0279 15.5363 
247.566 81.1981 -269.044 -146.896 53.5939 -40.6829 133.937 26.476 70.0735 -104.22 -20.1326 4.3018 40.6775 -10.2187 -15.5673 79.5546 -27.4499 -35.4902 157.712 28.9654 42.7711 -89.5193 -18.5887 14.6117 93.8278 -22.6316 -4.02816 -6.73814 6.56973 10.4373 -6.86058 8.4455 -87.5292 10.332 -12.5409 5.99015 -1.29409 -12.2656 6.54168 -24.3059 -13.7517 1.88198 -4.29329 -13.7517 1.88197 53.6994 -50.3694 -152.115 80.189 -69.6735 45.458 -169.752 73.9924 -179.983 0.888378 -0.137594 -13.2497 -40.434 -55.1643 148.677 -93.1609 -5.63001 -66.6372 93.2335 24.5706 -2.99137 20.3483 -15.7947 -73.3297 89.3189 20.0281 -32.3542 -130.079 33.7886 16.753 
249.313 81.385 -270.776 -147.579 52.6335 -40.4375 133.558 26.6811 69.315 -103.705 -30.9857 5.17095 35.7405 -12.0284 -20.3072 68.5414 -29.508 -50.4592 155.694 26.5657 43.9218 -90.5999 -15.9088 13.8835 108.99 -36.0994 -4.20695 -21.0216 4.48618 24.7668 -6.9125 8.42235 -87.3848 10.3936 -12.5764 6.29053 -1.23375 -12.2878 6.84306 -24.2438 -13.8756 2.15803 -4.23112 -13.8756 2.15803 53.0371 -50.6783 -152.737 55.6854 -55.9456 21.9972 11.7845 88.148 -0.143109 2.05919 -0.317173 -17.3177 -40.5239 -55.3198 148.483 -78.5589 1.40408 -64.6611 49.3735 -46.0688 0.31273 21.7335 -17.6514 -76.1793 87.823 20.1015 -34.0005 -133.084 31.8272 18.4415 
251.55 81.6421 -273.007 -148.443 51.4593 -40.1187 133.059 26.7514 68.4225 -102.42 -45.8135 7.08316 29.5244 -14.0471 -25.059 52.4173 -27.2674 -70.7704 154.089 23.5078 44.1623 -90.9489 -10.322 12.9027 129.47 -49.5704 2.16829 -27.2694 -3.52649 47.5198 -6.97526 8.37992 -87.2041 10.4979 -12.615 6.671 -1.13111 -12.3098 7.22448 -24.1376 -14.0266 2.50981 -4.12491 -14.0266 2.50981 52.1246 -51.0764 -153.603 44.6233 -37.0782 13.311 8.78052 68.3842 -0.0125552 1.53595 -0.343634 -21.7747 -40.5828 -55.5727 148.28 -62.5503 9.3242 -63.9068 38.5979 -17.1124 0.0562206 24.8433 -21.529 -80.4375 85.7003 20.4315 -36.051 -136.58 29.2865 20.265 
254.207 81.9601 -275.613 -149.437 50.1689 -39.7384 132.583 26.5869 67.2814 -98.3885 -63.5508 12.0205 23.554 -14.9052 -28.2763 37.5142 -19.5547 -89.907 154.534 21.2302 42.4772 -92.6907 -5.76764 11.9002 148.216 -59.8879 10.0697 -12.556 -2.95249 75.844 -7.04353 8.31128 -87.0052 10.6573 -12.6537 7.09799 -0.973866 -12.3298 7.65232 -23.975 -14.1916 2.90633 -3.9623 -14.1916 2.90633 51.0111 -51.5109 -154.681 38.6065 -18.3129 11.4136 2.37713 50.8106 -0.00731948 -0.249226 -0.0934416 -25.2541 -40.5085 -56.012 148.156 -47.8287 16.208 -64.1469 12.6296 16.5097 0.980531 48.5191 -33.6677 -76.0816 82.9988 21.2315 -38.2686 -140.164 26.3978 21.9399 
257.24 82.3026 -278.5 -150.519 48.8497 -39.3046 132.248 26.2274 65.8134 -84.7406 -77.9553 26.9025 20.0562 -16.7792 -27.9119 28.7762 -11.3631 -103.134 156.789 19.8192 39.6654 -97.4257 -1.07115 10.7671 160.475 -67.0966 15.2431 15.6199 5.7579 89.5713 -7.11093 8.21433 -86.819 10.8734 -12.6935 7.51036 -0.75986 -12.3516 8.06555 -23.755 -14.3532 3.28871 -3.74236 -14.3532 3.2887 49.9029 -51.8472 -155.805 34.147 -2.73641 12.8912 -5.4018 36.8446 -0.00577943 -1.7758 0.196295 -27.0844 -40.0457 -56.9071 148.302 -36.0241 21.0309 -64.3191 -10.5267 59.2067 -39.7502 78.8397 4.7277 32.8777 79.9536 22.8558 -40.2411 -143.512 23.597 23.3017 
260.559 82.6419 -281.588 -151.651 47.5764 -38.8226 132.013 25.7678 64.1713 -11.8372 -84.6655 101.164 19.294 -18.1905 -25.7338 25.4659 -7.13874 -112.686 159.975 18.5199 36.6898 -103.778 2.83543 9.47589 159.663 -74.5264 10.3184 48.2264 27.463 91.1906 -7.15191 8.09319 -86.7362 11.1297 -12.7258 7.72492 -0.504695 -12.3746 8.28108 -23.4974 -14.4484 3.48405 -3.48475 -14.4484 3.48404 49.571 -51.7146 -156.297 30.0694 8.82483 16.2372 -13.3283 25.8573 0.468389 -1.54937 0.158399 -27.6468 -38.3064 -59.2838 149.315 -27.1033 23.6016 -63.6445 -2.06185 31.081 -59.7483 -7.49392 1.0889 67.3332 77.1848 26.4694 -40.7442 -146.254 22.1305 24.4351 
264.049 82.981 -284.795 -152.807 46.4063 -38.2964 131.783 25.2497 62.5736 38.4802 -79.2196 152.904 20.2437 -19.0212 -23.1537 25.2667 -7.91699 -119.176 163.454 16.7561 34.0562 -110.55 6.51843 8.06336 129.191 -80.4903 -21.5068 85.0234 32.7487 64.3227 -7.15851 7.93914 -86.811 11.4404 -12.76 7.63672 -0.193015 -12.4125 8.19464 -23.191 -14.4544 3.38865 -3.17832 -14.4544 3.38866 50.3586 -50.9039 -155.891 25.8869 16.996 20.7606 -17.7153 18.9193 -6.45595 0.644977 -0.286718 -28.2582 -34.2223 -63.6053 152.137 -20.3547 24.2327 -61.734 8.01058 23.5851 -60.66 -10.0826 -3.43861 42.5257 74.4377 32.8081 -38.8075 -147.903 22.5909 25.7009 
267.599 83.3323 -288.031 -153.968 45.3794 -37.7283 131.515 24.6884 61.1433 48.0823 -73.6014 163.982 21.8066 -19.3981 -20.9326 26.4796 -11.8566 -123.299 166.81 14.2387 32.0127 -116.548 6.1484 6.5748 61.1346 -76.3587 -88.8524 110.152 23.8487 43.2095 -7.17454 7.76287 -87.0043 11.7907 -12.8666 7.32856 0.160224 -12.5325 7.89208 -22.8546 -14.4634 3.05951 -2.84196 -14.4634 3.0595 51.9308 -49.3232 -155.036 21.6921 22.6313 25.8534 -18.7663 16.9897 -21.4127 3.45907 -0.936196 -30.1584 -26.4945 -68.9852 158.326 -15.3124 23.4137 -58.8435 11.0665 18.3986 -61.6239 -10.7603 -2.21528 24.0621 70.8736 41.2103 -34.3347 -148.295 24.4248 27.4131 
271.105 83.7027 -291.207 -155.125 44.524 -37.1191 131.22 24.1045 59.9235 51.1134 -69.3485 168.522 23.3194 -19.5268 -19.3057 28.2323 -17.1859 -125.499 169.724 10.8767 30.685 -122.187 7.31452 5.21491 47.0085 -65.8879 -100.594 123.504 12.148 31.462 -7.18688 7.66941 -87.2226 11.9669 -12.9861 6.9378 0.339993 -12.6689 7.5077 -22.6938 -14.4598 2.64731 -2.68119 -14.4598 2.6473 54.1873 -47.148 -153.697 18.6308 26.7886 30.0097 -18.292 16.8782 -35.0919 5.52179 -1.56899 -33.2281 -13.3364 -74.2254 169.826 -11.0434 21.7087 -56.0694 12.9021 14.7534 -63.1945 -10.2705 -1.08981 10.054 67.1007 49.2057 -28.3375 -148.558 26.7205 29.3033 
274.464 84.091 -294.231 -156.275 43.8612 -36.4678 130.942 23.5248 58.9164 52.1911 -66.1695 171.095 24.4983 -19.5608 -18.2431 30.1437 -22.609 -126.285 171.947 6.78366 30.089 -126.96 7.64122 4.0453 43.1834 -55.7633 -101.347 130.979 2.34088 24.986 -7.13707 7.58297 -87.607 11.9864 -13.0589 6.05136 0.363467 -12.7809 6.62658 -22.6795 -14.261 1.77636 -2.66687 -14.2609 1.77635 58.2304 -43.7939 -150.749 15.9531 30.7652 33.4459 -16.6435 17.2092 -46.693 6.58253 -2.04545 -36.3293 24.517 -80.1659 -155.774 -5.82318 18.1983 -53.2164 14.0648 11.9087 -65.2275 -9.55765 -0.372194 0.122073 62.0286 60.6586 -20.9593 -150.273 30.6138 32.3691 
277.577 84.4901 -297.017 -157.422 43.4069 -35.7704 130.744 22.9769 58.1063 52.4856 -63.7794 172.806 25.3032 -19.5732 -17.6112 32.0372 -27.4413 -126.146 173.327 2.29928 30.1174 -130.819 8.04038 3.11378 42.9644 -47.6979 -98.5257 135.619 -4.86389 21.2868 -7.8271 10.1355 -82.9339 7.19833 -12.5992 14.4867 -4.49864 -11.9568 15.0176 -27.17 -16.3448 10.0398 -7.15736 -16.3448 10.0398 42.1063 -52.8325 -164.315 52.2417 28.3635 2.83094 -17.2502 11.8613 -53.038 6.07195 -2.09051 -39.3266 -50.0761 -35.7857 145.306 -4.18386 30.4048 -78.4651 15.2276 14.9942 -63.3754 -8.74238 0.0584908 -7.04726 72.0257 -8.30922 -72.0992 -167.816 -3.67249 19.6415 
280.349 84.8908 -299.484 -158.581 43.1752 -35.0183 130.694 22.4892 57.4726 52.4508 -61.9802 174.036 25.8062 -19.5803 -17.2602 33.7982 -31.4012 -125.491 173.818 -2.05569 30.5775 -133.677 8.55701 2.4122 44.124 -41.6853 -94.9443 138.681 -9.8435 19.1387 -7.77161 10.5555 -82.4832 6.34362 -12.3549 15.1972 -5.36406 -11.6826 15.7149 -27.9628 -16.322 10.8059 -7.95015 -16.322 10.8059 42.7354 -52.8734 -163.566 57.3588 28.1232 -0.404199 -15.8569 11.2815 -59.4622 5.97312 -2.17703 -41.1786 -51.0692 -34.3354 144.543 -0.436591 29.0694 -80.1675 16.2508 13.2432 -64.9501 -8.2341 0.304692 -12.0721 71.5298 -12.1544 -74.2996 -169.636 -6.00052 18.8486 
282.688 85.2841 -301.55 -159.773 43.181 -34.1981 130.872 22.091 56.994 52.3221 -60.6339 174.944 26.1253 -19.5695 -17.0477 35.3142 -34.4159 -124.654 173.47 -5.64048 31.2554 -135.5 9.30189 1.909 45.7437 -37.4384 -91.8772 140.689 -13.1882 17.8637 -7.69632 10.9073 -82.1365 5.62241 -12.1096 15.7327 -6.09408 -11.4148 16.2377 -28.6301 -16.246 11.4028 -8.61747 -16.246 11.4028 43.3887 -53.0485 -162.693 61.3522 27.3401 -2.90194 -14.6706 10.3969 -64.0808 5.45586 -2.09061 -42.575 -51.9476 -33.5545 143.548 2.60185 27.5226 -80.653 17.2355 11.4846 -66.7411 -7.8254 0.454329 -15.7714 70.5676 -15.2656 -76.1089 -170.912 -8.588 18.0912 
